<svg width="93" height="93" viewBox="0 0 512 512" fill="none" xmlns="http://www.w3.org/2000/svg">
<path d="M512 156.359V120.789C512 111.18 504.18 103.359 494.57 103.359C488.414 103.359 482.629 100.965 478.277 96.6211C473.926 92.2617 471.527 86.4727 471.527 80.3203V17.6875C471.527 7.93359 463.594 0 453.84 0H432.508C422.754 0 414.82 7.9375 414.82 17.6875V54.3477C414.82 77.0898 396.684 95.8945 374.395 96.2695C363.312 96.4414 352.781 92.2656 344.859 84.4727C336.934 76.6758 332.57 66.2617 332.57 55.1484V17.6875C332.57 7.93359 324.633 0 314.879 0H293.551C283.797 0 275.859 7.9375 275.859 17.6875V40.2891C275.859 44.4336 279.219 47.7891 283.359 47.7891C287.504 47.7891 290.859 44.4336 290.859 40.2891V17.6875C290.859 16.207 292.066 15 293.551 15H314.879C316.363 15 317.57 16.207 317.57 17.6875V55.1484C317.57 70.3164 323.527 84.5273 334.34 95.1641C345.152 105.801 359.465 111.488 374.645 111.27C405.07 110.754 429.82 85.2188 429.82 54.3477V17.6875C429.82 16.207 431.027 15 432.508 15H453.84C455.32 15 456.527 16.207 456.527 17.6875V80.3203C456.527 90.4727 460.48 100.027 467.672 107.227C474.863 114.406 484.414 118.359 494.57 118.359C495.91 118.359 497 119.449 497 120.789V151.777L373.691 210.938L250.391 151.781V120.789C250.391 119.961 250.777 119.398 251.117 119.059C251.379 118.797 251.945 118.359 252.82 118.359C273.797 118.359 290.859 101.297 290.859 80.3203V70.2891C290.859 66.1484 287.504 62.7891 283.359 62.7891C279.219 62.7891 275.859 66.1484 275.859 70.2891V80.3203C275.859 93.0234 265.523 103.359 252.82 103.359C248.148 103.359 243.766 105.176 240.496 108.465C237.203 111.758 235.391 116.137 235.391 120.789V156.242C235.387 156.41 235.387 156.578 235.391 156.746V281.367L196.82 304.484C191.387 301.367 185.168 299.688 178.859 299.688H134.109V170.125H178.859C198.738 170.125 214.91 153.953 214.91 134.074C214.91 114.195 198.738 98.0234 178.859 98.0234H171.004V89.832C171.004 73.6016 157.797 60.3984 141.566 60.3984H134.109V45.6992C134.109 37.1523 127.156 30.1992 118.609 30.1992H96.3008C87.7539 30.1992 80.8008 37.1523 80.8008 45.6992V60.3984H73.3438C57.1133 60.3984 43.9062 73.6016 43.9062 89.832V98.0234H36.0508C32.7578 98.0234 29.4961 98.4688 26.3516 99.3438C22.3633 100.457 20.0273 104.594 21.1406 108.586C22.2539 112.574 26.3867 114.902 30.3828 113.793C32.2148 113.281 34.1211 113.023 36.0508 113.023H178.859C190.469 113.023 199.91 122.465 199.91 134.074C199.91 145.68 190.469 155.121 178.859 155.121H36.0508C24.4414 155.121 15 145.68 15 134.074C15 132.883 15.1016 131.684 15.2969 130.52C15.9883 126.434 13.2383 122.562 9.15625 121.871C5.07422 121.176 1.19922 123.93 0.507812 128.016C0.171875 130.008 0 132.047 0 134.074C0 153.953 16.1719 170.125 36.0508 170.125H80.8008V299.688H36.0508C16.1719 299.688 0 315.859 0 335.738C0 345.355 3.74609 354.41 10.5625 361.238C17.3789 368.043 26.4336 371.789 36.0508 371.789H43.9102V379.977C43.9102 396.211 57.1133 409.418 73.3398 409.418H80.8008V424.117C80.8008 432.664 87.7539 439.617 96.3008 439.617H118.609C127.156 439.617 134.109 432.664 134.109 424.117V409.418H134.406C135.957 411.453 137.664 413.387 139.527 415.203C149.602 425.043 162.668 430.051 175.984 430.051H446.379C462.168 430.051 475.016 417.203 475.016 401.41V356.988H479.02C497.207 356.988 512 342.191 512 324.008V156.617C512 156.531 512 156.445 512 156.359V156.359ZM95.8008 45.6992C95.8008 45.4258 96.0234 45.1992 96.3008 45.1992H118.609C118.887 45.1992 119.109 45.4258 119.109 45.6992V60.3984H95.8008V45.6992ZM58.9062 98.0234V89.832C58.9062 81.8711 65.3828 75.3984 73.3438 75.3984H88.1445H88.3008H88.4531H126.453H126.609H126.766H141.566C149.527 75.3984 156.004 81.8711 156.004 89.832V98.0234H58.9062ZM314.523 264.43C317.875 264.43 320.891 266.547 322.035 269.695C330.742 293.719 353.762 309.859 379.309 309.859C405.402 309.859 428.582 293.262 436.984 268.559C437.824 266.09 440.145 264.43 442.754 264.43H447.414C454.363 264.43 460.016 270.082 460.016 277.031V371.516H356.18L331.578 336.266C329.211 332.871 324.531 332.039 321.137 334.41C317.742 336.777 316.91 341.453 319.277 344.852L337.887 371.516H319.891L273.562 305.121L286.254 297.512L302.117 320.25C303.578 322.34 305.906 323.461 308.277 323.461C309.758 323.461 311.254 323.023 312.559 322.109C315.957 319.738 316.789 315.062 314.422 311.668L298.457 288.785C302.699 284.004 305.164 277.746 305.164 271.215V264.43H314.523ZM284.121 371.516L248.34 320.238L260.664 312.852L301.598 371.516H284.121ZM247.828 371.516L222.75 335.578L235.441 327.973L265.828 371.52H247.828V371.516ZM178.367 333.031C178.75 333.727 179.188 334.398 179.676 335.035C184.672 341.535 192.242 345.016 199.949 345.016C203.234 345.016 206.547 344.383 209.695 343.078L229.539 371.516H139.324C141.168 360.973 147.535 351.512 156.855 345.93L178.367 333.031ZM290.164 266.031V271.219C290.164 275.16 288.086 278.867 284.734 280.934C284.602 281.012 284.469 281.09 284.34 281.176L259.16 296.266C259.031 296.34 258.902 296.418 258.773 296.5L233.816 311.457C233.77 311.484 233.719 311.516 233.672 311.547L205.359 328.516C200.762 331.273 194.836 330.145 191.566 325.895C191.527 325.844 191.406 325.684 191.457 325.422C191.5 325.191 191.637 325.086 191.707 325.039L200.297 319.891C200.395 319.836 200.496 319.773 200.594 319.711L289.828 266.223C289.941 266.156 290.051 266.094 290.164 266.031V266.031ZM95.8008 170.125H119.109V299.688H95.8008V170.125ZM58.9102 379.98V371.789H101.281C105.422 371.789 108.781 368.434 108.781 364.289C108.781 360.148 105.422 356.789 101.281 356.789H36.0508C30.4336 356.789 25.1445 354.602 21.168 350.633C17.1914 346.645 15 341.355 15 335.738C15 324.133 24.4414 314.688 36.0508 314.688H178.859C179.164 314.688 179.465 314.695 179.766 314.707L149.145 333.062C133.496 342.441 123.777 359.598 123.777 377.844C123.777 382.828 124.48 387.652 125.789 392.219C125.805 392.277 125.824 392.336 125.84 392.395C125.852 392.434 125.863 392.473 125.875 392.512C126.059 393.152 126.258 393.785 126.469 394.418H73.3398C65.3828 394.418 58.9102 387.941 58.9102 379.98V379.98ZM119.109 424.117C119.109 424.391 118.883 424.617 118.609 424.617H96.3008C96.0273 424.617 95.8008 424.391 95.8008 424.117V409.418H119.109V424.117ZM460.016 401.41C460.016 408.934 453.898 415.051 446.375 415.051C273.375 415.051 175.789 415.059 174.992 415.039C157.898 414.59 143.641 402.555 139.797 386.516H243.73C243.797 386.52 243.859 386.52 243.926 386.52C243.992 386.52 244.059 386.52 244.125 386.516H280.02C280.086 386.52 280.148 386.52 280.215 386.52C280.281 386.52 280.348 386.52 280.414 386.516H315.789C315.855 386.52 315.922 386.52 315.984 386.52C316.051 386.52 316.117 386.52 316.184 386.516H352.078C352.145 386.52 352.207 386.52 352.273 386.52C352.34 386.52 352.406 386.52 352.473 386.516H460.016V401.41ZM479.02 341.988H475.016V277.031C475.016 261.812 462.633 249.43 447.414 249.43H442.754C433.719 249.43 425.695 255.176 422.781 263.727C416.449 282.348 398.977 294.855 379.309 294.855C360.047 294.855 342.699 282.691 336.133 264.586C332.848 255.52 324.164 249.43 314.52 249.43C297.801 249.859 291.43 247.789 282.117 253.359L250.387 272.375V168.418L370.445 226.02C371.473 226.512 372.582 226.758 373.691 226.758C374.801 226.758 375.91 226.512 376.934 226.02L496.996 168.414V324.008C497 333.922 488.934 341.988 479.02 341.988V341.988Z" fill="#121A8E"/>
<path d="M365.871 132.145H360.832C356.688 132.145 353.332 135.5 353.332 139.645C353.332 143.785 356.688 147.145 360.832 147.145H362.418V173.086H361.504C357.359 173.086 354.004 176.441 354.004 180.586C354.004 184.73 357.359 188.086 361.504 188.086H378.332C382.477 188.086 385.832 184.73 385.832 180.586C385.832 176.441 382.477 173.086 378.332 173.086H377.418V143.691C377.418 137.324 372.238 132.145 365.871 132.145Z" fill="#121A8E"/>
</svg>
