<svg width="93" height="93" viewBox="0 0 480 512" fill="none" xmlns="http://www.w3.org/2000/svg">
<path d="M216.927 229.683C222.808 227.972 228.392 225.371 233.486 221.97L236.437 220.003L227.563 206.688L224.612 208.656C219.08 212.369 212.768 214.76 206.165 215.644C199.561 216.529 192.843 215.882 186.529 213.756L181.471 228.936C187.592 230.984 194.004 232.031 200.459 232.036C200.628 232.036 200.797 232.028 200.967 232.027C200.926 241.204 198.349 250.192 193.521 257.997C188.692 265.802 181.8 272.12 173.605 276.253L164.422 280.845L171.578 295.155L180.761 290.563C191.962 284.914 201.316 276.183 207.723 265.398C214.13 254.612 217.323 242.221 216.927 229.683V229.683Z" fill="#010B8B"/>
<path d="M457.924 148.464C439.375 120.601 415.899 96.3555 388.649 76.918L372.65 65.4902C372.001 65.0268 371.286 64.6627 370.53 64.4102L322.53 48.4102C321.484 48.0618 320.378 47.9332 319.28 48.0325C318.182 48.1318 317.117 48.4569 316.15 48.9873C315.184 49.5177 314.338 50.2421 313.665 51.1149C312.992 51.9878 312.506 52.9903 312.239 54.0596L304.239 86.0596C303.904 87.3999 303.921 88.8042 304.29 90.1356C304.659 91.4671 305.366 92.6803 306.343 93.6572L322.343 109.657C323.394 110.708 324.716 111.445 326.162 111.786C327.608 112.128 329.12 112.06 330.53 111.59L350.416 104.961C363.32 115.908 371.986 131.025 374.913 147.692C363.24 147.444 351.576 148.508 340.141 150.866L335.544 148.239C328.376 144.14 320.164 142.229 311.922 142.742C303.68 143.255 295.768 146.17 289.163 151.127L285.319 154.01L284.998 153.753L284.001 154.999L280.75 157.437L264 140.687V24C264 21.8783 263.157 19.8435 261.657 18.3432C260.157 16.8429 258.122 16 256 16H144C141.878 16 139.843 16.8429 138.343 18.3432C136.843 19.8435 136 21.8783 136 24V32C136.009 39.0924 138.37 45.9815 142.713 51.5887C147.056 57.196 153.135 61.2047 160 62.9873V70.1113L144.845 100.422C144.375 101.362 144.095 102.385 144.02 103.432C143.946 104.48 144.078 105.533 144.411 106.53C144.743 107.526 145.268 108.448 145.956 109.241C146.645 110.035 147.483 110.685 148.422 111.155L161.458 117.674L168.411 138.53C168.942 140.123 169.96 141.508 171.322 142.49C172.685 143.472 174.321 144 176 144H184V151.982C181.331 153.479 178.776 155.17 176.355 157.042L171.585 152.271L171.575 152.261L168.97 149.656L168.97 149.656C160.729 141.417 149.701 136.561 138.059 136.046C126.417 135.53 115.004 139.392 106.066 146.871C102.07 140.9 96.3781 136.261 89.7226 133.553C83.0672 130.845 75.7534 130.192 68.7234 131.677L64.4785 106.208L79.0449 88H88C96.4869 88 104.626 84.6286 110.627 78.6274C116.629 72.6263 120 64.4869 120 56C120 47.5131 116.629 39.3737 110.627 33.3726C104.626 27.3714 96.4869 24 88 24H74.7388C67.6002 23.9918 60.6645 26.3742 55.0378 30.7672C49.4111 35.1603 45.4175 41.3109 43.6939 48.2383L40.7695 59.9365C9.39445 91.9638 -8.12327 135.047 -7.99999 179.882V184C-8.00007 185.357 -7.65497 186.692 -6.99717 187.878C-6.33936 189.065 -5.39047 190.065 -4.23974 190.784L25.1685 209.164C48.4683 223.775 76.3856 229.154 103.446 224.248L107.691 225.663L110.33 249.416C111.659 261.23 116.953 272.245 125.348 280.662C128.736 284.031 131.422 288.039 133.25 292.453C135.079 296.867 136.013 301.6 136 306.378C136.006 331.767 137.585 357.131 140.729 382.324L144 408.5V431.016L128.239 494.06L143.761 497.94L159.761 433.94C159.92 433.306 160 432.654 160 432V416H268.146C286.15 438.782 295.962 466.962 296 496H312C311.959 463.119 300.77 431.223 280.262 405.521L278.838 403.742C274.488 394.825 272.111 385.075 271.871 375.157C271.631 365.238 273.532 355.384 277.446 346.268L279.013 342.611C284.01 330.987 291.675 320.703 301.386 312.592C312.233 303.575 320.959 292.278 326.942 279.504C332.925 266.731 336.018 252.795 336 238.689V228.866C348.267 233.793 361.534 235.714 374.694 234.468C387.854 233.222 400.526 228.846 411.65 221.705L447.246 199.054C451.308 196.468 454.814 193.098 457.557 189.14C460.3 185.181 462.226 180.716 463.22 176.004C464.215 171.292 464.258 166.429 463.349 161.7C462.44 156.971 460.595 152.471 457.924 148.464ZM152 32H248V107.057C241.953 104.024 236.342 100.189 231.321 95.6548C231.765 93.9189 231.993 92.1347 232 90.3428V83.3135C231.994 78.193 229.958 73.2839 226.337 69.6632C222.716 66.0425 217.807 64.0058 212.687 64C211.948 64.0038 211.21 64.0493 210.477 64.1365C209.385 60.9636 208.505 57.7215 207.845 54.4316C207.482 52.618 206.502 50.9861 205.072 49.8134C203.642 48.6408 201.85 48 200 48H168C163.758 47.9951 159.691 46.3079 156.692 43.3083C153.692 40.3088 152.005 36.242 152 32V32ZM438.655 185.556L403.06 208.207C393.139 214.568 381.717 218.204 369.944 218.746C358.172 219.289 346.464 216.719 336 211.297V200H320V238.689C320.015 250.449 317.436 262.067 312.448 272.716C307.461 283.365 300.186 292.784 291.143 300.301C279.494 310.03 270.301 322.365 264.307 336.308L262.74 339.964C254.569 358.984 253.623 380.332 260.079 400H159.062L156.604 380.34C153.544 355.805 152.006 331.103 152 306.378C152.019 299.498 150.673 292.683 148.04 286.327C145.408 279.971 141.54 274.2 136.662 269.349C130.831 263.503 127.155 255.853 126.232 247.648L124.381 230.981C127.403 231.656 130.49 231.998 133.586 232H141.578C149.617 232.003 157.492 229.719 164.281 225.413L155.719 211.897C151.49 214.579 146.585 216.002 141.578 216H133.586C130.746 216.001 127.924 215.543 125.23 214.644L106.53 208.41C105.209 207.97 103.796 207.882 102.431 208.155C78.7411 212.931 54.1215 208.436 33.648 195.596L8.00049 179.566C7.98548 159.141 12.0118 138.913 19.8476 120.05C27.6833 101.187 39.1736 84.0606 53.6567 69.6572C54.6821 68.6319 55.4095 67.3472 55.7612 65.9404L59.2163 52.1191C60.0781 48.6555 62.0749 45.5801 64.8883 43.3836C67.7016 41.187 71.1695 39.9959 74.7388 40H88C91.866 40.0003 95.6011 41.4002 98.515 43.941C101.429 46.4817 103.324 49.9915 103.851 53.8214C104.377 57.6514 103.5 61.5425 101.38 64.7754C99.2599 68.0083 96.0413 70.3645 92.3189 71.4082L94.2471 68.9971C94.9044 68.1768 95.3936 67.235 95.6867 66.2256C95.9799 65.2162 96.0712 64.1589 95.9555 63.1142C95.8398 62.0694 95.5194 61.0577 95.0125 60.1369C94.5056 59.216 93.8222 58.4041 93.0014 57.7475C92.1806 57.0909 91.2384 56.6025 90.2287 56.3103C89.219 56.018 88.1616 55.9276 87.117 56.0442C86.0724 56.1608 85.0609 56.4821 84.1405 56.9898C83.2201 57.4974 82.4088 58.1815 81.7529 59.0029L49.7529 99.0029C49.0509 99.8806 48.5416 100.896 48.2583 101.984C47.9751 103.072 47.9242 104.207 48.1089 105.315L55.0953 147.231C55.357 148.802 55.2735 150.411 54.8505 151.947C54.4274 153.482 53.6751 154.907 52.6457 156.122C51.6163 157.337 50.3346 158.314 48.8897 158.983C47.4448 159.653 45.8714 160 44.2788 160H32V176H44.2788C47.9454 176.003 51.574 175.258 54.9422 173.809C58.3105 172.36 61.3473 170.239 63.8666 167.575C66.386 164.911 68.3347 161.76 69.5933 158.316C70.8519 154.873 71.394 151.208 71.1862 147.547C75.6103 146.4 80.2944 146.807 84.4537 148.702C88.613 150.597 91.9949 153.863 94.0327 157.954L96 161.889V164.687C96 169.324 96.9134 173.916 98.688 178.2C100.463 182.485 103.064 186.378 106.343 189.657C109.622 192.936 113.515 195.537 117.8 197.312C122.084 199.087 126.676 200 131.313 200H144V184H131.313C126.191 184 121.279 181.965 117.657 178.343C114.035 174.721 112 169.809 112 164.687V163.314L114.344 160.97C120.088 155.226 127.878 152 136 152C144.123 152 151.913 155.227 157.657 160.971L160.261 163.575C162.722 166.023 164.674 168.934 166.002 172.141C167.33 175.348 168.009 178.787 168 182.258V184H184V182.258C183.999 178.973 183.619 175.7 182.869 172.502C191.476 164.442 202.835 159.97 214.627 160H216V144H214.627C209.701 144 204.792 144.577 200 145.719V141.766L218.53 135.59C220.543 134.919 222.207 133.476 223.156 131.578C224.105 129.68 224.261 127.483 223.59 125.47C222.919 123.457 221.476 121.793 219.578 120.844C217.68 119.895 215.483 119.739 213.47 120.41L190.702 128H181.766L175.589 109.47C175.257 108.473 174.732 107.552 174.044 106.758C173.355 105.965 172.517 105.314 171.578 104.845L162.733 100.422L175.155 75.5781C175.711 74.4672 176 73.2421 176 72V64H193.686C194.46 66.7993 195.383 69.5552 196.419 72.2671L194.343 74.3428L205.657 85.6572L210.343 80.9707C210.806 80.5072 211.397 80.1916 212.039 80.0637C212.682 79.9358 213.349 80.0014 213.954 80.2521C214.56 80.5029 215.077 80.9276 215.441 81.4725C215.806 82.0174 216 82.6581 216 83.3135V90.3428C216 91.0857 215.854 91.8213 215.57 92.5077C215.285 93.1941 214.869 93.8178 214.343 94.3431C213.818 94.8684 213.195 95.2851 212.508 95.5694C211.822 95.8537 211.086 96 210.343 96H208V112H210.343C214.424 112.004 218.422 110.847 221.869 108.664C227.654 113.692 234.051 117.971 240.908 121.398L248 124.944V144C248 146.122 248.843 148.157 250.343 149.657L274.343 173.657C275.649 174.961 277.364 175.773 279.2 175.956C281.036 176.139 282.878 175.682 284.415 174.662C289.568 180.895 292.211 188.825 291.828 196.903C291.444 204.981 288.063 212.626 282.343 218.343L293.657 229.657C302.098 221.221 307.131 209.967 307.79 198.05C308.45 186.134 304.691 174.393 297.232 165.076L298.763 163.928C302.87 160.844 307.79 159.031 312.916 158.712C318.041 158.393 323.148 159.582 327.606 162.132L335.848 166.842C341.048 169.838 345.074 174.515 347.263 180.102C349.453 185.69 349.676 191.856 347.896 197.588L363.152 202.412C365.143 196.021 365.595 189.25 364.471 182.651C363.348 176.052 360.682 169.812 356.689 164.439C370.732 162.929 384.922 163.561 398.775 166.314L406.431 167.845L409.569 152.155L401.913 150.624C398.394 149.92 394.845 149.356 391.279 148.902C389.768 137.22 385.941 125.957 380.02 115.774C374.099 105.59 366.205 96.6918 356.8 89.5996C355.765 88.8237 354.558 88.3102 353.281 88.103C352.005 87.8959 350.697 88.0013 349.47 88.4102L330.161 94.8467L320.86 85.5459L325.666 66.3213L364.329 79.209L379.349 89.9375C405.021 108.249 427.137 131.09 444.611 157.339C446.101 159.574 447.13 162.084 447.637 164.721C448.144 167.359 448.12 170.071 447.565 172.699C447.01 175.327 445.936 177.818 444.406 180.026C442.876 182.234 440.921 184.114 438.655 185.556L438.655 185.556Z" fill="#010B8B"/>
<path d="M264 192V176C259.325 175.985 254.699 176.942 250.414 178.812C246.13 180.682 242.282 183.423 239.114 186.861C232.807 182.379 225.87 178.857 218.53 176.41L213.47 191.59C225.861 195.707 236.64 203.625 244.275 214.217C251.909 224.81 256.012 237.539 256 250.597V282.923C256.022 291.094 254.424 299.189 251.297 306.738C248.17 314.287 243.576 321.141 237.783 326.903L210.343 354.343L221.657 365.657L249.096 338.218C256.38 330.973 262.155 322.356 266.087 312.864C270.018 303.373 272.028 293.196 272 282.923V250.597C272.017 230.879 264.573 211.885 251.163 197.429C252.827 195.706 254.821 194.337 257.027 193.404C259.233 192.471 261.605 191.994 264 192V192Z" fill="#010B8B"/>
<path d="M248 464H232V496H248V464Z" fill="#010B8B"/>
</svg>
