<svg width="93" height="93" viewBox="0 0 512 512" fill="none" xmlns="http://www.w3.org/2000/svg">
<rect width="93" height="93" fill="#E5E5E5"/>
<g clip-path="url(#clip0_0_1)">
<path d="M398.328 167.715C399.992 169.379 402.168 170.207 404.344 170.207C406.519 170.207 408.699 169.375 410.363 167.715L469.652 108.426C486.637 91.4375 486.637 63.7929 469.652 46.8047C452.664 29.8125 425.016 29.8203 408.031 46.8047L404.344 50.4843L400.664 46.8047C383.668 29.8164 356.031 29.8164 339.043 46.8047C330.812 55.0351 326.277 65.9765 326.277 77.6133C326.277 89.25 330.812 100.195 339.043 108.422L398.328 167.715ZM351.078 58.8398C356.258 53.6601 363.055 51.0781 369.852 51.0781C376.648 51.0781 383.453 53.664 388.629 58.8398L398.328 68.5429C399.926 70.1367 402.09 71.0351 404.344 71.0351C406.602 71.0351 408.766 70.1367 410.363 68.5429L420.066 58.8398C430.426 48.4765 447.266 48.4883 457.617 58.8398C467.969 69.1914 467.969 86.039 457.617 96.3906L404.344 149.66L351.078 96.3906C346.062 91.375 343.297 84.7031 343.297 77.6172C343.301 70.5234 346.062 63.8515 351.078 58.8398V58.8398Z" fill="#121A8E"/>
<path d="M484.149 493.652C411.403 501.723 353.711 469.512 353.133 469.188C351.176 468.07 348.856 467.77 346.68 468.367C345.762 468.613 254.258 493.141 180.559 476.781C134.614 466.566 91.2776 434.203 59.633 410.574C55.383 407.402 51.3557 404.391 47.5744 401.629C42.4104 397.852 34.1994 394.711 26.9612 391.938C23.7112 390.695 19.258 388.988 18.301 388.391C17.4729 387.742 17.0198 386.789 17.0198 385.699V365.973C17.4299 350.363 82.8752 110.18 93.0237 79.625C93.2737 79.2656 94.2502 78.5586 94.969 78.2188L224.485 19.0625L266.356 73.5742C268.422 76.3984 268.227 80.3477 265.899 82.9531L224.524 129.336C221.817 132.375 217.258 132.707 214.43 130.344L197.699 114.918C195.739 113.113 192.949 112.516 190.336 112.996C187.715 113.465 185.371 115.332 184.16 117.707C182.762 120.461 170.094 123.836 157.172 123.934L152.961 123.508C149.586 123.105 146.313 124.867 144.664 127.84C143.008 130.812 143.289 134.484 145.367 137.18C148.961 141.824 151.762 145.555 153.348 147.695L161.629 288.465C156.496 308.457 151.793 314.137 150.625 315.273C147.176 316.363 144.672 319.586 144.672 323.391C144.672 328.09 148.485 331.902 153.184 331.902C162.836 331.902 171.039 319.219 177.625 294.457C245.317 243.809 304.391 291.609 309.024 295.543C330.524 317.121 331.856 331.453 331.899 332.09C332 336.699 335.77 340.41 340.41 340.41C345.11 340.41 348.922 336.602 348.922 331.902C348.922 329.945 348.211 313.152 326.184 288.891C346.957 263.352 370.61 248.641 396.66 245.438C441.574 239.906 479.328 270.109 479.707 270.41C483.356 273.379 488.707 272.832 491.676 269.191C494.645 265.555 494.11 260.203 490.477 257.23C488.719 255.797 446.926 222.176 394.754 228.523C364.258 232.223 336.883 248.715 313.285 277.582C294.133 264.559 239.219 235.082 177.805 273.633L170.188 144.176C170.11 142.777 169.68 141.422 168.949 140.23C176.567 139.328 185.637 137.34 192.215 133.012L203.18 143.117C213.387 151.684 228.336 150.617 237.219 140.672L278.594 94.2852C286.227 85.7344 286.864 72.8047 279.977 63.375L233.852 3.32422C231.446 0.187504 227.188 -0.878902 223.567 0.769535L88.0002 62.6914C86.5823 63.3125 79.3909 66.793 77.0276 73.9023C72.2073 88.3711 0.000228882 345.883 0.000228882 365.945V385.703C0.000228882 392.043 2.84788 397.906 7.80492 401.793C10.2854 403.734 13.9924 405.203 20.8791 407.836C26.5041 409.992 34.2034 412.934 37.5276 415.367C41.2698 418.102 45.2463 421.074 49.4494 424.215C82.3284 448.77 127.356 482.395 176.871 493.398C247.36 509.062 330.106 490.125 347.84 485.656C359.684 491.777 403.137 512 460.024 512C468.418 512 477.11 511.563 486.028 510.566C490.699 510.051 494.063 505.84 493.547 501.172C493.024 496.492 488.801 493.102 484.149 493.652V493.652Z" fill="#121A8E"/>
<path d="M442.484 390.535C442.016 386.277 438.41 382.965 434.023 382.965C429.324 382.965 425.512 386.777 425.512 391.476C425.512 397.16 429.711 416.406 483.687 425.398C484.16 425.476 484.633 425.515 485.094 425.515C489.18 425.515 492.785 422.566 493.48 418.406C494.25 413.769 491.117 409.386 486.484 408.609C448.738 402.32 442.988 391.668 442.484 390.535V390.535Z" fill="#121A8E"/>
<path d="M279.059 434.214C167.594 458.089 119.895 381.824 117.922 378.57C115.488 374.55 110.274 373.257 106.254 375.672C102.223 378.089 100.918 383.316 103.336 387.347C103.899 388.281 117.442 410.511 146.399 429.449C166.352 442.492 196.777 455.781 237.93 455.781C251.637 455.781 266.531 454.308 282.621 450.863C287.219 449.879 290.149 445.351 289.164 440.757C288.176 436.164 283.656 433.222 279.059 434.214V434.214Z" fill="#121A8E"/>
</g>
<defs>
<clipPath id="clip0_0_1">
<rect width="512" height="512" fill="white"/>
</clipPath>
</defs>
</svg>
